<svg width="242" height="57" viewBox="0 0 242 57" fill="none" xmlns="http://www.w3.org/2000/svg">
<g clip-path="url(#clip0_1_2)">
<rect width="242" height="57"/>
<path d="M95.812 5.08L87.568 18.148L91.24 31H84.4L81.7 21.496H78.856L77.164 31H70.684L75.256 5.08H81.736L79.828 15.88H82.132L88.972 5.08H95.812ZM112.057 21.496H102.481L100.825 31H94.309L98.881 5.08H116.953L115.945 10.696H104.353L103.453 15.88H113.029L112.057 21.496ZM125.994 13.18C128.586 13.18 130.542 13.744 131.862 14.872C132.894 15.76 133.41 16.996 133.41 18.58C133.41 19.108 133.35 19.684 133.23 20.308L132.474 24.52C132.018 27.064 130.95 28.864 129.27 29.92C127.614 30.976 125.394 31.504 122.61 31.504C119.826 31.504 117.786 30.976 116.49 29.92C115.53 29.128 115.05 27.94 115.05 26.356C115.05 25.804 115.11 25.192 115.23 24.52L115.986 20.308C116.826 15.556 120.162 13.18 125.994 13.18ZM126.966 21.028C127.014 20.788 127.038 20.488 127.038 20.128C127.038 19.744 126.882 19.324 126.57 18.868C126.258 18.412 125.706 18.184 124.914 18.184C124.146 18.184 123.498 18.448 122.97 18.976C122.442 19.48 122.106 20.164 121.962 21.028L121.494 23.728C121.446 23.968 121.422 24.28 121.422 24.664C121.422 25.024 121.578 25.42 121.89 25.852C122.202 26.284 122.742 26.5 123.51 26.5C124.302 26.5 124.962 26.236 125.49 25.708C126.018 25.156 126.354 24.496 126.498 23.728L126.966 21.028ZM147.142 19.948C147.142 18.916 146.638 18.4 145.63 18.4C144.646 18.4 143.83 18.772 143.182 19.516L141.166 31H135.046L138.106 13.684H143.794L143.398 15.808C144.814 14.056 146.602 13.18 148.762 13.18C150.922 13.18 152.326 13.708 152.974 14.764C153.382 15.436 153.586 16.204 153.586 17.068C153.586 17.932 153.526 18.736 153.406 19.48L152.434 25.024C152.41 25.168 152.398 25.3 152.398 25.42C152.398 26.068 152.758 26.392 153.478 26.392C154.03 26.392 154.522 26.272 154.954 26.032L154.774 30.1C153.646 31.036 152.362 31.504 150.922 31.504C147.658 31.504 146.026 30.136 146.026 27.4C146.026 26.92 146.074 26.404 146.17 25.852L147.034 21.064C147.106 20.632 147.142 20.26 147.142 19.948ZM164.337 31.504C159.345 31.504 156.849 29.776 156.849 26.32C156.849 25.84 156.897 25.324 156.993 24.772L157.749 20.308C158.157 18.004 159.213 16.24 160.917 15.016C162.645 13.768 164.925 13.144 167.757 13.144C172.581 13.144 174.993 14.968 174.993 18.616C174.993 19.144 174.945 19.72 174.849 20.344L174.417 22.9H163.437L163.293 23.728C163.245 24.016 163.221 24.28 163.221 24.52C163.221 25.84 164.001 26.5 165.561 26.5C166.137 26.5 166.629 26.32 167.037 25.96C167.445 25.6 167.685 25.18 167.757 24.7L173.733 24.772C172.941 29.26 169.809 31.504 164.337 31.504ZM168.657 20.704C168.753 20.296 168.801 19.924 168.801 19.588C168.801 19.228 168.645 18.868 168.333 18.508C168.021 18.148 167.517 17.968 166.821 17.968C166.149 17.968 165.525 18.196 164.949 18.652C164.397 19.108 164.013 19.792 163.797 20.704H168.657Z" fill="#ED3D48"/>
<path d="M-0.539062 0.113464V0.709714C12.3513 6.57284 25.2485 15.1199 33.85 24.3605C33.6093 24.7751 33.3655 25.1864 33.1199 25.5957C22.6166 17.9083 10.7957 12.3655 -0.539062 8.87757V17.9127C8.2718 19.9037 17.6374 23.3137 26.5629 28.3841C20.2242 26.0462 13.2323 24.6174 6.03117 24.4143C12.9675 26.7982 20.498 29.8797 27.7056 33.6126C20.0849 43.6242 10.6771 51.085 -0.333399 54.0489C13.5443 57.9555 33.0506 54.414 45.5156 45.0806C49.1379 48.0579 52.3309 51.2658 54.8865 54.693V54.0871C53.6319 49.8633 51.8201 45.6683 49.5812 41.5722C51.0859 40.0647 52.4201 38.4454 53.5482 36.7187C46.9526 42.5521 38.5404 45.9328 28.1508 49.1212C37.3356 43.8706 45.2666 37.3294 51.4867 30.418C52.6632 29.0212 53.7976 27.5921 54.8865 26.1383V21.6372C46.0738 33.2847 32.7622 43.759 19.4094 49.3098C33.7445 41.2848 49.0497 25.8972 54.2852 11.3781C49.7817 17.7887 44.3723 23.4876 38.5985 28.3539C45.3394 19.6887 51.2964 10.5027 54.8864 3.03436V0.113581H44.336C41.9466 7.77999 38.8856 15.1994 35.1878 21.9819C26.7069 12.8667 16.8683 5.18311 7.85414 0.113581L-0.539062 0.113464ZM18.8793 49.5039H18.9369C18.8994 49.5191 18.8619 49.5349 18.8244 49.5502C18.8427 49.5349 18.8611 49.5191 18.8793 49.5039Z" fill="#ED3D48"/>
<path d="M77.41 38.68L74.44 45.025V49H73.03V45.04L70.06 38.68H71.56L73.765 43.84L75.955 38.68H77.41ZM80.5518 40.915C81.5618 40.915 82.3468 41.27 82.9068 41.98C83.4668 42.69 83.7468 43.71 83.7468 45.04C83.7468 46.32 83.4618 47.335 82.8918 48.085C82.3218 48.825 81.5368 49.195 80.5368 49.195C79.5268 49.195 78.7368 48.83 78.1668 48.1C77.6068 47.37 77.3268 46.355 77.3268 45.055C77.3268 43.745 77.6118 42.73 78.1818 42.01C78.7518 41.28 79.5418 40.915 80.5518 40.915ZM80.5518 41.995C79.9618 41.995 79.5118 42.245 79.2018 42.745C78.8918 43.235 78.7368 44.005 78.7368 45.055C78.7368 47.105 79.3368 48.13 80.5368 48.13C81.7368 48.13 82.3368 47.1 82.3368 45.04C82.3368 43.99 82.1868 43.22 81.8868 42.73C81.5868 42.24 81.1418 41.995 80.5518 41.995ZM91.1173 49H89.9473L89.8723 47.815C89.3223 48.735 88.5873 49.195 87.6673 49.195C87.0373 49.195 86.5423 48.99 86.1823 48.58C85.8223 48.17 85.6423 47.615 85.6423 46.915V41.11H86.9923V46.795C86.9923 47.255 87.0773 47.595 87.2473 47.815C87.4273 48.025 87.6923 48.13 88.0423 48.13C88.7123 48.13 89.2873 47.69 89.7673 46.81V41.11H91.1173V49ZM96.7939 40.93C97.0539 40.93 97.2789 40.96 97.4689 41.02L97.2439 42.325C97.0539 42.265 96.8489 42.235 96.6289 42.235C96.1889 42.235 95.8289 42.41 95.5489 42.76C95.2789 43.11 95.0639 43.645 94.9039 44.365V49H93.5539V41.11H94.7239L94.8289 42.67C95.2189 41.51 95.8739 40.93 96.7939 40.93ZM107.924 37.915V49H106.724L106.634 47.965C106.124 48.785 105.439 49.195 104.579 49.195C103.719 49.195 103.049 48.83 102.569 48.1C102.099 47.37 101.864 46.365 101.864 45.085C101.864 44.255 101.979 43.525 102.209 42.895C102.449 42.265 102.784 41.78 103.214 41.44C103.644 41.09 104.139 40.915 104.699 40.915C105.449 40.915 106.074 41.23 106.574 41.86V37.765L107.924 37.915ZM104.894 48.13C105.254 48.13 105.564 48.03 105.824 47.83C106.094 47.63 106.344 47.335 106.574 46.945V42.985C106.124 42.315 105.599 41.98 104.999 41.98C104.469 41.98 104.049 42.235 103.739 42.745C103.429 43.255 103.279 44.025 103.289 45.055C103.289 46.105 103.429 46.88 103.709 47.38C103.989 47.88 104.384 48.13 104.894 48.13ZM111.706 41.11V49H110.356V41.11H111.706ZM111.031 37.39C111.291 37.39 111.501 37.475 111.661 37.645C111.831 37.815 111.916 38.025 111.916 38.275C111.916 38.525 111.836 38.735 111.676 38.905C111.516 39.065 111.301 39.145 111.031 39.145C110.771 39.145 110.556 39.065 110.386 38.905C110.226 38.735 110.146 38.525 110.146 38.275C110.146 38.025 110.226 37.815 110.386 37.645C110.556 37.475 110.771 37.39 111.031 37.39ZM119.925 41.395C119.495 41.565 118.83 41.65 117.93 41.65C118.77 42.07 119.19 42.76 119.19 43.72C119.19 44.51 118.94 45.15 118.44 45.64C117.95 46.12 117.28 46.36 116.43 46.36C116.11 46.36 115.82 46.31 115.56 46.21C115.28 46.41 115.14 46.665 115.14 46.975C115.14 47.445 115.47 47.68 116.13 47.68H117.165C117.945 47.68 118.565 47.88 119.025 48.28C119.485 48.67 119.715 49.17 119.715 49.78C119.715 50.52 119.43 51.1 118.86 51.52C118.29 51.95 117.455 52.165 116.355 52.165C115.215 52.165 114.405 51.97 113.925 51.58C113.455 51.19 113.22 50.595 113.22 49.795H114.435C114.435 50.125 114.49 50.385 114.6 50.575C114.72 50.775 114.915 50.92 115.185 51.01C115.465 51.11 115.86 51.16 116.37 51.16C117.08 51.16 117.59 51.05 117.9 50.83C118.21 50.61 118.365 50.295 118.365 49.885C118.365 49.505 118.235 49.215 117.975 49.015C117.725 48.815 117.365 48.715 116.895 48.715H116.01C115.32 48.715 114.805 48.585 114.465 48.325C114.125 48.055 113.955 47.7 113.955 47.26C113.955 46.75 114.23 46.295 114.78 45.895C114.36 45.655 114.045 45.355 113.835 44.995C113.635 44.625 113.535 44.18 113.535 43.66C113.535 42.84 113.795 42.18 114.315 41.68C114.835 41.18 115.52 40.93 116.37 40.93C117.16 40.93 117.77 40.875 118.2 40.765C118.64 40.655 119.09 40.485 119.55 40.255L119.925 41.395ZM116.385 41.875C115.895 41.875 115.52 42.03 115.26 42.34C115.01 42.64 114.885 43.08 114.885 43.66C114.885 44.22 115.015 44.66 115.275 44.98C115.545 45.29 115.915 45.445 116.385 45.445C117.375 45.445 117.87 44.845 117.87 43.645C117.87 43.065 117.745 42.625 117.495 42.325C117.245 42.025 116.875 41.875 116.385 41.875ZM122.531 41.11V49H121.181V41.11H122.531ZM121.856 37.39C122.116 37.39 122.326 37.475 122.486 37.645C122.656 37.815 122.741 38.025 122.741 38.275C122.741 38.525 122.661 38.735 122.501 38.905C122.341 39.065 122.126 39.145 121.856 39.145C121.596 39.145 121.381 39.065 121.211 38.905C121.051 38.735 120.971 38.525 120.971 38.275C120.971 38.025 121.051 37.815 121.211 37.645C121.381 37.475 121.596 37.39 121.856 37.39ZM128.695 48.655C128.195 49.015 127.64 49.195 127.03 49.195C126.39 49.195 125.895 49.01 125.545 48.64C125.205 48.27 125.035 47.75 125.035 47.08V42.13H123.91V41.11H125.035V39.295L126.385 39.13V41.11H128.125L127.975 42.13H126.385V47.065C126.385 47.745 126.67 48.085 127.24 48.085C127.41 48.085 127.565 48.06 127.705 48.01C127.855 47.96 128.02 47.885 128.2 47.785L128.695 48.655ZM134.685 47.2C134.685 47.52 134.73 47.76 134.82 47.92C134.91 48.07 135.05 48.185 135.24 48.265L134.955 49.18C134.565 49.12 134.26 49 134.04 48.82C133.82 48.64 133.665 48.365 133.575 47.995C133.065 48.795 132.35 49.195 131.43 49.195C130.73 49.195 130.175 48.98 129.765 48.55C129.355 48.11 129.15 47.525 129.15 46.795C129.15 45.955 129.425 45.315 129.975 44.875C130.525 44.435 131.31 44.215 132.33 44.215H133.35V43.54C133.35 42.99 133.235 42.595 133.005 42.355C132.785 42.105 132.42 41.98 131.91 41.98C131.36 41.98 130.72 42.12 129.99 42.4L129.66 41.455C130.54 41.095 131.36 40.915 132.12 40.915C133.83 40.915 134.685 41.77 134.685 43.48V47.2ZM131.745 48.175C132.445 48.175 132.98 47.765 133.35 46.945V45.085H132.48C131.18 45.085 130.53 45.63 130.53 46.72C130.53 47.19 130.635 47.55 130.845 47.8C131.055 48.05 131.355 48.175 131.745 48.175ZM138.457 49.195C137.977 49.195 137.597 49.05 137.317 48.76C137.037 48.47 136.897 48.065 136.897 47.545V37.915L138.247 37.765V47.5C138.247 47.89 138.407 48.085 138.727 48.085C138.857 48.085 139.002 48.055 139.162 47.995L139.462 48.94C139.142 49.11 138.807 49.195 138.457 49.195ZM152.782 41.11L151.162 49H149.452L148.162 42.34L146.887 49H145.177L143.527 41.11H144.862L146.092 47.98L147.472 41.11H148.927L150.262 47.995L151.507 41.11H152.782ZM157.031 40.915C158.041 40.915 158.826 41.27 159.386 41.98C159.946 42.69 160.226 43.71 160.226 45.04C160.226 46.32 159.941 47.335 159.371 48.085C158.801 48.825 158.016 49.195 157.016 49.195C156.006 49.195 155.216 48.83 154.646 48.1C154.086 47.37 153.806 46.355 153.806 45.055C153.806 43.745 154.091 42.73 154.661 42.01C155.231 41.28 156.021 40.915 157.031 40.915ZM157.031 41.995C156.441 41.995 155.991 42.245 155.681 42.745C155.371 43.235 155.216 44.005 155.216 45.055C155.216 47.105 155.816 48.13 157.016 48.13C158.216 48.13 158.816 47.1 158.816 45.04C158.816 43.99 158.666 43.22 158.366 42.73C158.066 42.24 157.621 41.995 157.031 41.995ZM165.422 40.93C165.682 40.93 165.907 40.96 166.097 41.02L165.872 42.325C165.682 42.265 165.477 42.235 165.257 42.235C164.817 42.235 164.457 42.41 164.177 42.76C163.907 43.11 163.692 43.645 163.532 44.365V49H162.182V41.11H163.352L163.457 42.67C163.847 41.51 164.502 40.93 165.422 40.93ZM168.896 49.195C168.416 49.195 168.036 49.05 167.756 48.76C167.476 48.47 167.336 48.065 167.336 47.545V37.915L168.686 37.765V47.5C168.686 47.89 168.846 48.085 169.166 48.085C169.296 48.085 169.441 48.055 169.601 47.995L169.901 48.94C169.581 49.11 169.246 49.195 168.896 49.195ZM176.903 37.915V49H175.703L175.613 47.965C175.103 48.785 174.418 49.195 173.558 49.195C172.698 49.195 172.028 48.83 171.548 48.1C171.078 47.37 170.843 46.365 170.843 45.085C170.843 44.255 170.958 43.525 171.188 42.895C171.428 42.265 171.763 41.78 172.193 41.44C172.623 41.09 173.118 40.915 173.678 40.915C174.428 40.915 175.053 41.23 175.553 41.86V37.765L176.903 37.915ZM173.873 48.13C174.233 48.13 174.543 48.03 174.803 47.83C175.073 47.63 175.323 47.335 175.553 46.945V42.985C175.103 42.315 174.578 41.98 173.978 41.98C173.448 41.98 173.028 42.235 172.718 42.745C172.408 43.255 172.258 44.025 172.268 45.055C172.268 46.105 172.408 46.88 172.688 47.38C172.968 47.88 173.363 48.13 173.873 48.13ZM186.6 48.655C186.1 49.015 185.545 49.195 184.935 49.195C184.295 49.195 183.8 49.01 183.45 48.64C183.11 48.27 182.94 47.75 182.94 47.08V42.13H181.815V41.11H182.94V39.295L184.29 39.13V41.11H186.03L185.88 42.13H184.29V47.065C184.29 47.745 184.575 48.085 185.145 48.085C185.315 48.085 185.47 48.06 185.61 48.01C185.76 47.96 185.925 47.885 186.105 47.785L186.6 48.655ZM190.298 40.915C191.308 40.915 192.093 41.27 192.653 41.98C193.213 42.69 193.493 43.71 193.493 45.04C193.493 46.32 193.208 47.335 192.638 48.085C192.068 48.825 191.283 49.195 190.283 49.195C189.273 49.195 188.483 48.83 187.913 48.1C187.353 47.37 187.073 46.355 187.073 45.055C187.073 43.745 187.358 42.73 187.928 42.01C188.498 41.28 189.288 40.915 190.298 40.915ZM190.298 41.995C189.708 41.995 189.258 42.245 188.948 42.745C188.638 43.235 188.483 44.005 188.483 45.055C188.483 47.105 189.083 48.13 190.283 48.13C191.483 48.13 192.083 47.1 192.083 45.04C192.083 43.99 191.933 43.22 191.633 42.73C191.333 42.24 190.888 41.995 190.298 41.995ZM202.738 40.915C203.308 40.915 203.763 41.13 204.103 41.56C204.443 41.98 204.613 42.545 204.613 43.255V49H203.278V43.405C203.278 42.445 202.968 41.965 202.348 41.965C201.748 41.965 201.198 42.425 200.698 43.345V49H199.363V43.405C199.363 42.445 199.053 41.965 198.433 41.965C197.823 41.965 197.273 42.425 196.783 43.345V49H195.448V41.11H196.618L196.723 42.265C197.303 41.365 198.003 40.915 198.823 40.915C199.253 40.915 199.618 41.04 199.918 41.29C200.218 41.54 200.433 41.895 200.563 42.355C201.173 41.395 201.898 40.915 202.738 40.915ZM209.722 40.915C210.732 40.915 211.517 41.27 212.077 41.98C212.637 42.69 212.917 43.71 212.917 45.04C212.917 46.32 212.632 47.335 212.062 48.085C211.492 48.825 210.707 49.195 209.707 49.195C208.697 49.195 207.907 48.83 207.337 48.1C206.777 47.37 206.497 46.355 206.497 45.055C206.497 43.745 206.782 42.73 207.352 42.01C207.922 41.28 208.712 40.915 209.722 40.915ZM209.722 41.995C209.132 41.995 208.682 42.245 208.372 42.745C208.062 43.235 207.907 44.005 207.907 45.055C207.907 47.105 208.507 48.13 209.707 48.13C210.907 48.13 211.507 47.1 211.507 45.04C211.507 43.99 211.357 43.22 211.057 42.73C210.757 42.24 210.312 41.995 209.722 41.995ZM218.112 40.93C218.372 40.93 218.597 40.96 218.787 41.02L218.562 42.325C218.372 42.265 218.167 42.235 217.947 42.235C217.507 42.235 217.147 42.41 216.867 42.76C216.597 43.11 216.382 43.645 216.222 44.365V49H214.872V41.11H216.042L216.147 42.67C216.537 41.51 217.192 40.93 218.112 40.93ZM223.342 40.93C223.602 40.93 223.827 40.96 224.017 41.02L223.792 42.325C223.602 42.265 223.397 42.235 223.177 42.235C222.737 42.235 222.377 42.41 222.097 42.76C221.827 43.11 221.612 43.645 221.452 44.365V49H220.102V41.11H221.272L221.377 42.67C221.767 41.51 222.422 40.93 223.342 40.93ZM227.651 40.915C228.661 40.915 229.446 41.27 230.006 41.98C230.566 42.69 230.846 43.71 230.846 45.04C230.846 46.32 230.561 47.335 229.991 48.085C229.421 48.825 228.636 49.195 227.636 49.195C226.626 49.195 225.836 48.83 225.266 48.1C224.706 47.37 224.426 46.355 224.426 45.055C224.426 43.745 224.711 42.73 225.281 42.01C225.851 41.28 226.641 40.915 227.651 40.915ZM227.651 41.995C227.061 41.995 226.611 42.245 226.301 42.745C225.991 43.235 225.836 44.005 225.836 45.055C225.836 47.105 226.436 48.13 227.636 48.13C228.836 48.13 229.436 47.1 229.436 45.04C229.436 43.99 229.286 43.22 228.986 42.73C228.686 42.24 228.241 41.995 227.651 41.995ZM241.127 41.11L239.507 49H237.797L236.507 42.34L235.232 49H233.522L231.872 41.11H233.207L234.437 47.98L235.817 41.11H237.272L238.607 47.995L239.852 41.11H241.127Z" fill="#3E3E3E"/>
</g>
<defs>
<clipPath id="clip0_1_2">
<rect width="242" height="57" fill="white"/>
</clipPath>
</defs>
</svg>
